custom-analysis
version=1
nRows=4
nColumns=98
inDegrees=no

This file contains tibia displacement and acting force.

Units are S.I. units (seconds, meters, Newtons, ...)
Angles are in degrees.

endheader
time	APT	SIT	knee_angle	aACL_R_force	pACL_R_force	aPCL_R_force	pPCL_R_force	aMCL_R_force	mMCL_R_force	pMCL_R_force	aLCL_R_force	mLCL_R_force	pLCL_R_force	aPCL_L_force	pPCL_L_force	aMCL_L_force	aLCL_L_force	aACL_R_length	pACL_R_length	aPCL_R_length	pPCL_R_length	aMCL_R_length	mMCL_R_length	pMCL_R_length	aLCL_R_length	mLCL_R_length	pLCL_R_length	aPCL_L_length	pPCL_L_length	aMCL_L_length	aLCL_L_length	aACL_R_strain	pACL_R_strain	aPCL_R_strain	pPCL_R_strain	aMCL_R_strain	mMCL_R_strain	pMCL_R_strain	aLCL_R_strain	mLCL_R_strain	pLCL_R_strain	aPCL_L_strain	pPCL_L_strain	aMCL_L_strain	aLCL_L_strain	femur_lat_meniscii_r.femur_lat_r.force.X	femur_lat_meniscii_r.femur_lat_r.force.Y	femur_lat_meniscii_r.femur_lat_r.force.Z	femur_lat_meniscii_r.femur_lat_r.torque.X	femur_lat_meniscii_r.femur_lat_r.torque.Y	femur_lat_meniscii_r.femur_lat_r.torque.Z	femur_lat_meniscii_r.meniscus_lat_r.force.X	femur_lat_meniscii_r.meniscus_lat_r.force.Y	femur_lat_meniscii_r.meniscus_lat_r.force.Z	femur_lat_meniscii_r.meniscus_lat_r.torque.X	femur_lat_meniscii_r.meniscus_lat_r.torque.Y	femur_lat_meniscii_r.meniscus_lat_r.torque.Z	femur_med_meniscii_r.femur_med_r.force.X	femur_med_meniscii_r.femur_med_r.force.Y	femur_med_meniscii_r.femur_med_r.force.Z	femur_med_meniscii_r.femur_med_r.torque.X	femur_med_meniscii_r.femur_med_r.torque.Y	femur_med_meniscii_r.femur_med_r.torque.Z	femur_med_meniscii_r.meniscus_med_r.force.X	femur_med_meniscii_r.meniscus_med_r.force.Y	femur_med_meniscii_r.meniscus_med_r.force.Z	femur_med_meniscii_r.meniscus_med_r.torque.X	femur_med_meniscii_r.meniscus_med_r.torque.Y	femur_med_meniscii_r.meniscus_med_r.torque.Z	femur_med_tibia_r.tibia_upper_r.force.X	femur_med_tibia_r.tibia_upper_r.force.Y	femur_med_tibia_r.tibia_upper_r.force.Z	femur_med_tibia_r.tibia_upper_r.torque.X	femur_med_tibia_r.tibia_upper_r.torque.Y	femur_med_tibia_r.tibia_upper_r.torque.Z	femur_med_tibia_r.femur_med_r.force.X	femur_med_tibia_r.femur_med_r.force.Y	femur_med_tibia_r.femur_med_r.force.Z	femur_med_tibia_r.femur_med_r.torque.X	femur_med_tibia_r.femur_med_r.torque.Y	femur_med_tibia_r.femur_med_r.torque.Z	femur_lat_tibia_r.tibia_upper_r.force.X	femur_lat_tibia_r.tibia_upper_r.force.Y	femur_lat_tibia_r.tibia_upper_r.force.Z	femur_lat_tibia_r.tibia_upper_r.torque.X	femur_lat_tibia_r.tibia_upper_r.torque.Y	femur_lat_tibia_r.tibia_upper_r.torque.Z	femur_lat_tibia_r.femur_lat_r.force.X	femur_lat_tibia_r.femur_lat_r.force.Y	femur_lat_tibia_r.femur_lat_r.force.Z	femur_lat_tibia_r.femur_lat_r.torque.X	femur_lat_tibia_r.femur_lat_r.torque.Y	femur_lat_tibia_r.femur_lat_r.torque.Z	femur_lat_meniscii_force_r	femur_med_meniscii_force_r	femur_lat_tibia_force_r	femur_med_tibia_force_r
      0.17104981	      0.00937954	      0.03242435	     99.66955580	      0.00000000	      0.00000000	   1317.89451104	    927.00357213	      0.20271541	      4.74678581	      0.00000000	      0.00000000	      0.00000000	      0.00000000	      0.00000000	      0.00000000	      0.00000001	      0.00000000	      0.02938731	      0.02460972	      0.03912042	      0.03577906	      0.06177870	      0.06007241	      0.05744172	      0.04882569	      0.04369466	      0.03997003	      0.01525851	      0.01651186	      0.06550154	      0.04489616	     -0.05219038	     -0.01791698	      0.25808130	      0.19711269	      0.02918191	      0.00466449	     -0.02190234	     -0.12775751	     -0.22415218	     -0.23637815	      0.00000079	     -0.32847694	      0.00000060	     -0.00000086	    -44.94456282	     86.50019712	     -0.68064720	     -1.92609602	     -0.70813675	     33.88408761	     44.94456282	    -86.50019712	      0.68064720	      2.18109569	      1.12312096	      2.01610741	      0.00000000	      0.00000000	      0.00000000	      0.00000000	      0.00000000	      0.00000000	      0.00000000	      0.00000000	      0.00000000	      0.00000000	      0.00000000	      0.00000000	    222.04708115	   -942.92507105	    367.65559572	    -23.57796919	     -3.05604865	      6.34483853	   -222.04708115	    942.92507105	   -367.65559572	     15.66200687	    150.67887342	    377.04380157	     76.41142737	   -308.45818175	    -85.38070999	     11.17500962	      2.14158261	      2.28252859	    -76.41142737	    308.45818175	     85.38070999	     -7.65860387	    -36.01687927	    123.24706701	     97.48210661	      0.00000000	    329.05170074	   1036.13861665
      0.17137080	      0.00930098	      0.03251213	     99.94059784	      0.00000000	      0.00000000	   1321.58954329	    931.16013209	     -0.72885511	      4.44543036	      0.00000000	      0.00000000	      0.00000000	      0.00000000	      0.00000000	      0.00000000	      0.00000001	      0.00000000	      0.02936545	      0.02461962	      0.03914117	      0.03580249	      0.06177609	      0.06007437	      0.05746206	      0.04880183	      0.04368101	      0.03998140	      0.01525851	      0.01651186	      0.06550154	      0.04489616	     -0.05289543	     -0.01752191	      0.25874873	      0.19789645	      0.02913832	      0.00469733	     -0.02155590	     -0.12818383	     -0.22439467	     -0.23616101	      0.00000079	     -0.32847694	      0.00000060	     -0.00000086	    -39.19722736	     85.88233842	     -0.81844435	     -1.91031190	     -0.52699077	     33.69431849	     39.19722736	    -85.88233842	      0.81844435	      2.16028056	      0.97930047	      1.79659385	      0.00000000	      0.00000000	      0.00000000	      0.00000000	      0.00000000	      0.00000000	      0.00000000	      0.00000000	      0.00000000	      0.00000000	      0.00000000	      0.00000000	    218.40785960	   -940.73785084	    367.65813493	    -23.52411202	     -2.95834916	      6.35257684	   -218.40785960	    940.73785084	   -367.65813493	     15.60119413	    150.60341659	    376.13788807	     75.32424071	   -310.46247221	    -85.15682929	     11.22111467	      2.09746945	      2.29477380	    -75.32424071	    310.46247221	     85.15682929	     -7.69852840	    -35.89281864	    124.03125176	     94.40798979	      0.00000000	    330.62421790	   1033.37418262
      0.17169178	      0.00922104	      0.03259974	    100.21163839	      0.00000000	      0.00000000	   1325.39881247	    935.67122178	     -1.70783499	      4.15986718	      0.00000000	      0.00000000	      0.00000000	      0.00000000	      0.00000000	      0.00000000	      0.00000001	      0.00000000	      0.02934324	      0.02462963	      0.03916200	      0.03582616	      0.06177306	      0.06007621	      0.05748257	      0.04877804	      0.04366768	      0.03999344	      0.01525851	      0.01651186	      0.06550154	      0.04489616	     -0.05361184	     -0.01712274	      0.25941853	      0.19868852	      0.02908786	      0.00472803	     -0.02120669	     -0.12860877	     -0.22463122	     -0.23593085	      0.00000079	     -0.32847694	      0.00000060	     -0.00000086	    -35.97270981	     84.00642229	     -0.34555908	     -1.87296796	     -0.63958985	     32.97524068	     35.97270981	    -84.00642229	      0.34555908	      2.13204425	      0.89307544	      1.67799811	      0.00000000	      0.00000000	      0.00000000	      0.00000000	      0.00000000	      0.00000000	      0.00000000	      0.00000000	      0.00000000	      0.00000000	      0.00000000	      0.00000000	    214.56746105	   -938.83762550	    368.25183613	    -23.49937608	     -2.85791389	      6.35017209	   -214.56746105	    938.83762550	   -368.25183613	     15.55308021	    150.76061018	    375.34957502	     74.61427780	   -311.51145030	    -85.03491474	     11.24781817	      2.06425681	      2.32655659	    -74.61427780	    311.51145030	     85.03491474	     -7.71894999	    -35.81911524	    124.42524750	     91.38508767	      0.00000000	    331.41757775	   1031.05028840
      0.17259870	      0.00898755	      0.03284651	    100.97737645	      0.00000000	      0.00000000	   1336.08067920	    948.23059746	     -4.57718732	      3.21713094	      0.00000000	      0.00000000	      0.00000000	      0.00000000	      0.00000000	      0.00000000	      0.00000001	      0.00000000	      0.02927807	      0.02465799	      0.03922124	      0.03589444	      0.06176213	      0.06008060	      0.05754134	      0.04871125	      0.04363190	      0.04003130	      0.01525851	      0.01651186	      0.06550154	      0.04489616	     -0.05571368	     -0.01599100	      0.26132380	      0.20097284	      0.02890577	      0.00480147	     -0.02020598	     -0.12980199	     -0.22526654	     -0.23520759	      0.00000079	     -0.32847694	      0.00000060	     -0.00000086	    -29.38201056	     80.16287717	     -1.66706021	     -1.77273941	      0.03102218	     31.50432702	     29.38201056	    -80.16287717	      1.66706021	      1.98295546	      0.73107181	      1.43694062	      0.00000000	      0.00000000	      0.00000000	      0.00000000	      0.00000000	      0.00000000	      0.00000000	      0.00000000	      0.00000000	      0.00000000	      0.00000000	      0.00000000	    204.08112981	   -931.82601079	    367.92143644	    -23.32359012	     -2.57477414	      6.34963053	   -204.08112981	    931.82601079	   -367.92143644	     15.36628741	    150.40208371	    372.46294652	     73.34191727	   -319.14567372	    -85.96266647	     11.49532708	      1.99353955	      2.42760443	    -73.34191727	    319.14567372	     85.96266647	     -7.89514520	    -36.14004210	    127.41658563	     85.39419483	      0.00000000	    338.55956331	   1022.40647754
